<svg xmlns="http://www.w3.org/2000/svg" xmlns:xlink="http://www.w3.org/1999/xlink" width="256" height="255" preserveAspectRatio="xMidYMid" version="1.1" viewBox="0 0 256 255"><defs><linearGradient id="linearGradient-1" x1="84.75%" x2="58.254%" y1="111.399%" y2="64.584%"><stop offset="0%" stop-color="#FB7655"/><stop offset="0%" stop-color="#FB7655"/><stop offset="41%" stop-color="#E42B1E"/><stop offset="99%" stop-color="#900"/><stop offset="100%" stop-color="#900"/></linearGradient><linearGradient id="linearGradient-2" x1="116.651%" x2="1.746%" y1="60.89%" y2="19.288%"><stop offset="0%" stop-color="#871101"/><stop offset="0%" stop-color="#871101"/><stop offset="99%" stop-color="#911209"/><stop offset="100%" stop-color="#911209"/></linearGradient><linearGradient id="linearGradient-3" x1="75.774%" x2="38.978%" y1="219.327%" y2="7.829%"><stop offset="0%" stop-color="#871101"/><stop offset="0%" stop-color="#871101"/><stop offset="99%" stop-color="#911209"/><stop offset="100%" stop-color="#911209"/></linearGradient><linearGradient id="linearGradient-4" x1="50.012%" x2="66.483%" y1="7.234%" y2="79.135%"><stop offset="0%" stop-color="#FFF"/><stop offset="0%" stop-color="#FFF"/><stop offset="23%" stop-color="#E57252"/><stop offset="46%" stop-color="#DE3B20"/><stop offset="99%" stop-color="#A60003"/><stop offset="100%" stop-color="#A60003"/></linearGradient><linearGradient id="linearGradient-5" x1="46.174%" x2="49.932%" y1="16.348%" y2="83.047%"><stop offset="0%" stop-color="#FFF"/><stop offset="0%" stop-color="#FFF"/><stop offset="23%" stop-color="#E4714E"/><stop offset="56%" stop-color="#BE1A0D"/><stop offset="99%" stop-color="#A80D00"/><stop offset="100%" stop-color="#A80D00"/></linearGradient><linearGradient id="linearGradient-6" x1="36.965%" x2="49.528%" y1="15.594%" y2="92.478%"><stop offset="0%" stop-color="#FFF"/><stop offset="0%" stop-color="#FFF"/><stop offset="18%" stop-color="#E46342"/><stop offset="40%" stop-color="#C82410"/><stop offset="99%" stop-color="#A80D00"/><stop offset="100%" stop-color="#A80D00"/></linearGradient><linearGradient id="linearGradient-7" x1="13.609%" x2="85.764%" y1="58.346%" y2="-46.717%"><stop offset="0%" stop-color="#FFF"/><stop offset="0%" stop-color="#FFF"/><stop offset="54%" stop-color="#C81F11"/><stop offset="99%" stop-color="#BF0905"/><stop offset="100%" stop-color="#BF0905"/></linearGradient><linearGradient id="linearGradient-8" x1="27.624%" x2="50.745%" y1="21.135%" y2="79.056%"><stop offset="0%" stop-color="#FFF"/><stop offset="0%" stop-color="#FFF"/><stop offset="31%" stop-color="#DE4024"/><stop offset="99%" stop-color="#BF190B"/><stop offset="100%" stop-color="#BF190B"/></linearGradient><linearGradient id="linearGradient-9" x1="-20.667%" x2="104.242%" y1="122.282%" y2="-6.342%"><stop offset="0%" stop-color="#BD0012"/><stop offset="0%" stop-color="#BD0012"/><stop offset="7%" stop-color="#FFF"/><stop offset="17%" stop-color="#FFF"/><stop offset="27%" stop-color="#C82F1C"/><stop offset="33%" stop-color="#820C01"/><stop offset="46%" stop-color="#A31601"/><stop offset="72%" stop-color="#B31301"/><stop offset="99%" stop-color="#E82609"/><stop offset="100%" stop-color="#E82609"/></linearGradient><linearGradient id="linearGradient-10" x1="58.792%" x2="11.964%" y1="65.205%" y2="50.128%"><stop offset="0%" stop-color="#8C0C01"/><stop offset="0%" stop-color="#8C0C01"/><stop offset="54%" stop-color="#990C00"/><stop offset="99%" stop-color="#A80D0E"/><stop offset="100%" stop-color="#A80D0E"/></linearGradient><linearGradient id="linearGradient-11" x1="79.319%" x2="23.088%" y1="62.754%" y2="17.888%"><stop offset="0%" stop-color="#7E110B"/><stop offset="0%" stop-color="#7E110B"/><stop offset="99%" stop-color="#9E0C00"/><stop offset="100%" stop-color="#9E0C00"/></linearGradient><linearGradient id="linearGradient-12" x1="92.88%" x2="59.841%" y1="74.122%" y2="39.704%"><stop offset="0%" stop-color="#79130D"/><stop offset="0%" stop-color="#79130D"/><stop offset="99%" stop-color="#9E120B"/><stop offset="100%" stop-color="#9E120B"/></linearGradient><radialGradient id="radialGradient-13" cx="32.001%" cy="40.21%" r="69.573%" fx="32.001%" fy="40.21%"><stop offset="0%" stop-color="#A80D00"/><stop offset="0%" stop-color="#A80D00"/><stop offset="99%" stop-color="#7E0E08"/><stop offset="100%" stop-color="#7E0E08"/></radialGradient><radialGradient id="radialGradient-14" cx="13.549%" cy="40.86%" r="88.386%" fx="13.549%" fy="40.86%"><stop offset="0%" stop-color="#A30C00"/><stop offset="0%" stop-color="#A30C00"/><stop offset="99%" stop-color="#800E08"/><stop offset="100%" stop-color="#800E08"/></radialGradient><linearGradient id="linearGradient-15" x1="56.57%" x2="3.105%" y1="101.717%" y2="11.993%"><stop offset="0%" stop-color="#8B2114"/><stop offset="0%" stop-color="#8B2114"/><stop offset="43%" stop-color="#9E100A"/><stop offset="99%" stop-color="#B3100C"/><stop offset="100%" stop-color="#B3100C"/></linearGradient><linearGradient id="linearGradient-16" x1="30.87%" x2="92.471%" y1="35.599%" y2="100.694%"><stop offset="0%" stop-color="#B31000"/><stop offset="0%" stop-color="#B31000"/><stop offset="44%" stop-color="#910F08"/><stop offset="99%" stop-color="#791C12"/><stop offset="100%" stop-color="#791C12"/></linearGradient></defs><g><path fill="url(#linearGradient-1)" d="M197.467337,167.763618 L51.9461307,254.173266 L240.368563,241.387417 L254.880804,51.3929648 L197.467337,167.763618 Z"/><path fill="url(#linearGradient-2)" d="M240.677307,241.257487 L224.482412,129.479397 L180.369367,187.729045 L240.677307,241.257487 Z"/><path fill="url(#linearGradient-3)" d="M240.896,241.257487 L122.249648,231.943719 L52.5764824,253.930131 L240.896,241.257487 Z"/><path fill="url(#linearGradient-4)" d="M52.7437186,253.954573 L82.3831156,156.854673 L17.161005,170.800884 L52.7437186,253.954573 Z"/><path fill="url(#linearGradient-5)" d="M180.357789,188.050653 L153.085427,81.2253266 L75.0375879,154.384724 L180.357789,188.050653 Z"/><path fill="url(#linearGradient-6)" d="M248.693065,82.7304523 L174.916181,22.4739698 L154.371859,88.8924623 L248.693065,82.7304523 Z"/><path fill="url(#linearGradient-7)" d="M214.190955,0.990552764 L170.799598,24.9696482 L143.424322,0.668944724 L214.190955,0.990552764 Z"/><path fill="url(#linearGradient-8)" d="M0,203.37206 L18.1772864,170.220704 L3.47336683,130.727236 L0,203.37206 Z"/><path fill="#FFF" d="M2.49567839,129.479397 L17.2896482,171.442814 L81.5726633,157.020623 L154.963618,88.8139899 L175.675176,23.0271357 L143.062834,0 L87.617608,20.7501508 C70.1491457,36.9977889 36.2516583,69.1457286 35.0295477,69.7503518 C33.8203015,70.3678392 12.6456281,110.388744 2.49567839,129.479397 L2.49567839,129.479397 Z"/><path fill="url(#linearGradient-9)" d="M54.441809,54.0944724 C92.3015075,16.5563819 141.108744,-5.62170854 159.839196,13.2759799 C178.55807,32.1736683 158.707136,78.0992965 120.847437,115.624523 C82.9877387,153.149749 34.7851256,176.54995 16.0675377,157.652261 C-2.66291457,138.767437 16.5821106,91.6196985 54.441809,54.0944724 L54.441809,54.0944724 Z"/><path fill="url(#linearGradient-10)" d="M52.7437186,253.91598 L82.1515578,156.507337 L179.817487,187.883417 C144.504925,220.996181 105.230151,248.988945 52.7437186,253.91598 L52.7437186,253.91598 Z"/><path fill="url(#linearGradient-11)" d="M155.092261,88.6223116 L180.164824,187.934874 C209.662714,156.918995 236.137487,123.574673 249.103437,82.3316583 L155.092261,88.6223116 L155.092261,88.6223116 Z"/><path fill="url(#linearGradient-12)" d="M248.847437,82.8333668 C258.881608,52.5507538 261.197186,9.1079397 213.880925,1.04201005 L175.056402,22.4868342 L248.847437,82.8333668 L248.847437,82.8333668 Z"/><path fill="#9E1209" d="M0,202.934673 C1.38934673,252.913849 37.4480402,253.658693 52.8080402,254.097367 L17.3282412,171.236985 L0,202.934673 L0,202.934673 Z"/><path fill="url(#radialGradient-13)" d="M155.232482,88.7766834 C177.899417,102.708744 223.58191,130.688643 224.508141,131.203216 C225.947658,132.013668 244.203417,100.418894 248.345729,82.5632161 L155.232482,88.7766834 L155.232482,88.7766834 Z"/><path fill="url(#radialGradient-14)" d="M82.1129648,156.507337 L121.426332,232.355377 C144.672161,219.748342 162.875176,204.388342 179.547337,187.934874 L82.1129648,156.507337 L82.1129648,156.507337 Z"/><path fill="url(#linearGradient-15)" d="M17.1738693,171.339899 L11.6036181,237.668342 C22.1137688,252.024925 36.5732663,253.272764 51.7403015,252.153568 C40.7670352,224.842613 18.8462312,170.233568 17.1738693,171.339899 L17.1738693,171.339899 Z"/><path fill="url(#linearGradient-16)" d="M174.826131,22.6540704 L252.925427,33.6144724 C248.757387,15.9517588 235.957387,4.55396985 214.139497,0.990552764 L174.826131,22.6540704 L174.826131,22.6540704 Z"/></g></svg>