<?xml version="1.0" standalone="no"?>
<!DOCTYPE svg PUBLIC "-//W3C//DTD SVG 20010904//EN"
 "http://www.w3.org/TR/2001/REC-SVG-20010904/DTD/svg10.dtd">
<svg version="1.0" xmlns="http://www.w3.org/2000/svg"
 width="639.000000pt" height="650.000000pt" viewBox="0 0 639.000000 650.000000"
 preserveAspectRatio="xMidYMid meet">

<g transform="translate(0.000000,650.000000) scale(0.100000,-0.100000)"
fill="#000000" stroke="none">
<path d="M957 5508 c-13 -13 -29 -32 -37 -44 -31 -42 -60 -54 -121 -47 -53 5
-62 3 -94 -22 -20 -15 -44 -42 -52 -61 -18 -36 -51 -54 -63 -34 -6 9 -22 0
-56 -32 -43 -41 -48 -51 -55 -104 -6 -54 -5 -61 18 -81 13 -13 33 -23 44 -23
25 0 89 -27 89 -37 0 -4 -27 -27 -59 -50 -44 -32 -65 -57 -85 -98 -32 -64 -81
-108 -191 -172 -92 -54 -205 -159 -205 -192 0 -12 16 -53 35 -91 56 -111 47
-136 -37 -106 -30 11 -38 11 -38 1 0 -7 19 -16 45 -19 29 -5 50 -15 60 -29 15
-22 15 -22 -65 -28 -75 -6 -100 -12 -89 -24 3 -2 34 1 71 7 80 13 92 7 123
-59 19 -42 21 -52 9 -57 -19 -7 -19 -115 1 -164 28 -67 78 -132 97 -126 12 3
18 0 18 -10 0 -9 5 -16 10 -16 6 0 10 5 10 10 0 6 9 10 20 10 11 0 20 5 20 11
0 6 7 9 15 5 8 -3 15 -1 15 4 0 18 39 50 61 50 19 0 19 -1 5 -16 -21 -20 -20
-73 0 -103 9 -12 17 -43 18 -67 1 -32 8 -51 25 -67 l23 -22 -7 22 c-3 13 -3
44 1 70 l7 48 13 -66 c16 -89 57 -172 102 -209 20 -17 30 -30 22 -30 -8 0 -28
-12 -45 -26 l-30 -25 52 5 51 5 -31 -67 c-35 -75 -45 -155 -28 -217 12 -45
120 -219 121 -194 0 9 -7 38 -15 64 -22 76 -10 64 19 -18 27 -74 85 -163 70
-107 -4 14 -18 47 -32 75 -13 27 -20 51 -15 52 6 2 -1 25 -14 51 -21 40 -24
58 -21 119 5 113 23 109 23 -5 0 -84 3 -102 24 -137 13 -22 34 -80 48 -130 23
-89 80 -222 89 -212 3 3 1 22 -5 44 -14 50 -14 165 0 237 19 92 39 47 25 -56
-9 -62 -1 -128 14 -128 6 0 10 12 10 28 0 26 21 -17 95 -199 12 -31 28 -65 34
-75 12 -18 12 -18 7 1 -16 61 -26 118 -22 122 2 2 10 -19 17 -46 14 -54 29
-68 29 -25 0 14 4 23 10 19 6 -3 10 -17 10 -31 0 -13 8 -32 18 -42 9 -9 26
-36 36 -60 19 -42 46 -74 46 -54 0 5 -9 29 -20 53 -11 24 -19 60 -19 79 l2 35
10 -37 c6 -21 15 -38 21 -38 7 0 20 -16 30 -35 10 -19 27 -42 37 -51 18 -16
19 -16 19 0 0 27 20 8 41 -38 20 -45 25 -119 9 -163 l-10 -28 20 24 c24 28 26
21 5 -19 -17 -32 -4 -42 15 -12 10 15 11 15 7 -3 -3 -11 -8 -29 -13 -40 -7
-17 -5 -18 7 -8 9 7 22 31 29 53 7 22 20 46 29 53 12 10 14 9 8 -7 -4 -10 -3
-33 2 -50 18 -57 44 -328 52 -546 4 -118 12 -240 17 -270 12 -74 -5 -146 -33
-142 -11 1 -37 5 -58 9 -33 5 -39 3 -44 -15 -4 -17 -8 -19 -23 -10 -27 17 -96
-7 -130 -44 -16 -17 -36 -48 -46 -69 -9 -22 -23 -39 -31 -39 -21 0 -36 -44
-29 -84 7 -35 46 -76 73 -76 8 0 26 -14 40 -30 25 -31 26 -31 97 -24 39 4 74
12 78 17 4 7 20 6 48 -3 38 -13 44 -12 55 4 9 11 14 13 17 5 3 -9 16 -9 56 0
29 6 64 11 78 11 43 0 91 45 98 93 9 53 33 127 63 192 34 74 56 189 50 265 -4
48 0 77 14 115 24 65 43 158 69 336 20 137 23 148 68 223 29 49 48 73 50 63 5
-27 22 -9 22 24 0 18 4 28 10 24 18 -11 10 -46 -19 -83 -57 -72 -71 -192 -31
-257 12 -19 26 -33 30 -30 5 3 10 -4 12 -16 2 -15 29 -38 88 -73 47 -28 116
-74 155 -101 39 -28 82 -50 97 -51 15 -1 56 -5 90 -8 35 -4 93 -3 130 3 58 8
75 16 118 52 75 64 112 124 106 174 -7 62 -15 75 -46 75 -20 0 -27 5 -26 17 0
9 -10 23 -24 30 -30 15 -131 17 -181 3 -28 -8 -45 -7 -72 5 -20 8 -47 15 -61
15 -19 0 -26 7 -31 28 -10 45 9 77 104 176 49 52 92 103 96 115 4 13 15 21 28
21 12 0 58 9 102 20 44 11 97 20 118 20 20 0 37 4 37 9 0 5 29 9 64 9 36 0 80
7 100 16 20 9 52 23 71 32 41 18 132 34 193 34 33 0 42 -4 43 -17 0 -11 3 -13
6 -5 2 7 14 17 25 23 17 9 18 8 9 -9 -21 -39 38 -262 73 -275 7 -3 23 -37 36
-77 43 -134 127 -233 222 -262 25 -7 44 -21 53 -38 22 -42 97 -111 174 -160
39 -25 71 -50 71 -57 0 -7 16 -24 35 -39 34 -26 35 -28 35 -98 0 -133 -42
-214 -119 -231 -23 -5 -35 -1 -51 15 -19 19 -29 21 -68 15 -51 -8 -65 -13 -58
-23 2 -4 -16 -5 -40 -3 -39 3 -48 -1 -79 -32 -25 -25 -35 -44 -35 -67 0 -17
-7 -39 -16 -47 -9 -9 -14 -26 -11 -39 3 -16 -2 -24 -15 -27 -22 -6 -24 -27 -3
-27 8 0 15 -5 15 -10 0 -6 14 -19 32 -30 29 -17 33 -17 43 -3 10 14 12 13 11
-8 -1 -20 3 -24 27 -22 17 1 27 -3 27 -12 0 -26 114 -30 146 -4 6 5 48 11 95
14 129 8 153 14 187 45 20 18 32 24 32 15 0 -21 17 -27 40 -13 13 9 20 23 20
45 0 18 -4 33 -9 33 -17 0 51 116 117 201 38 47 98 136 135 197 54 90 67 118
69 156 1 45 -1 49 -55 96 -99 89 -270 343 -273 406 -1 17 -5 41 -9 53 -4 15
-2 21 8 21 10 0 13 7 10 19 -3 13 12 34 50 70 30 28 74 76 97 105 l43 54 51
-38 c56 -42 149 -90 211 -110 22 -7 50 -24 62 -36 12 -13 28 -24 36 -24 8 0
43 -33 78 -72 35 -40 75 -83 89 -96 30 -29 288 -155 313 -154 9 0 15 -3 12 -8
-8 -13 47 -71 124 -130 70 -53 84 -74 96 -140 12 -63 16 -70 56 -96 26 -16 46
-40 58 -67 10 -23 26 -49 36 -57 23 -19 54 -87 55 -118 0 -19 -3 -21 -19 -12
-36 19 -54 13 -47 -15 5 -21 3 -25 -15 -25 -12 0 -39 -18 -61 -40 -32 -32 -38
-43 -29 -57 7 -13 5 -23 -6 -35 -9 -10 -15 -32 -15 -50 0 -18 1 -46 1 -61 1
-60 141 -86 254 -47 31 11 65 20 76 20 11 0 22 6 24 13 3 6 6 3 6 -7 1 -18 4
-17 30 8 21 20 30 24 34 14 4 -10 9 -8 18 6 9 14 13 15 19 6 6 -10 18 -5 49
19 53 42 55 80 9 159 -18 31 -33 72 -34 92 -1 20 -7 46 -13 58 -6 12 -15 86
-20 166 -7 135 -10 150 -40 211 -29 58 -82 115 -107 115 -18 0 -153 139 -159
163 -4 14 -13 28 -21 31 -20 8 -101 137 -109 177 -15 71 -70 221 -151 415 -50
121 -84 216 -84 236 0 45 -27 123 -77 223 -23 44 -48 97 -57 118 l-16 38 83
-6 c45 -4 111 -11 147 -17 74 -12 309 -11 325 2 5 4 33 12 61 18 154 33 329
121 381 192 18 25 43 59 55 75 36 45 72 211 65 294 -11 133 -84 269 -206 384
-113 106 -220 161 -371 192 -47 9 -100 25 -117 35 -18 11 -61 22 -95 25 -35 3
-76 9 -93 14 -48 14 -147 23 -141 12 4 -5 -17 -16 -46 -25 -29 -8 -80 -31
-113 -51 -67 -41 -91 -60 -60 -49 25 9 26 10 -60 -61 -38 -32 -77 -65 -85 -73
-13 -13 -13 -14 3 -9 27 10 9 -13 -19 -23 -13 -5 -24 -15 -24 -21 0 -6 6 -9
13 -6 8 3 14 -4 15 -19 1 -18 -5 -25 -23 -30 -13 -3 -29 -12 -36 -20 -8 -10 2
-8 32 6 59 27 116 26 138 -1 22 -28 103 -41 178 -29 31 5 89 27 132 50 167 89
218 110 301 126 48 9 104 13 128 10 71 -10 160 -64 248 -151 91 -90 136 -162
160 -255 28 -110 -8 -216 -101 -298 -54 -48 -159 -92 -216 -92 -23 0 -82 -5
-130 -12 -157 -21 -256 11 -484 154 -200 125 -430 255 -615 346 -96 47 -176
90 -178 94 -2 4 -21 8 -42 8 -21 0 -90 14 -155 30 -250 65 -479 76 -835 38
-126 -13 -279 -21 -395 -22 -172 -1 -194 1 -230 19 -22 11 -39 25 -38 31 4 19
-35 46 -84 61 -46 12 -46 13 -10 10 45 -4 49 8 5 17 -24 5 -29 9 -20 18 7 7
11 23 11 38 -1 20 -2 21 -6 5 -7 -29 -21 -41 -16 -13 3 15 -6 37 -24 63 -16
22 -32 48 -36 58 -3 9 -11 17 -17 17 -6 0 -23 14 -37 30 -19 23 -33 30 -62 30
-20 0 -46 -7 -57 -15 -18 -14 -17 -14 9 -5 30 11 73 5 95 -13 11 -9 11 -12 -5
-18 -11 -4 -25 0 -36 9 -15 14 -24 14 -64 4 -82 -22 -64 11 25 45 35 13 50 14
73 6 27 -10 28 -10 19 8 -16 28 -56 24 -139 -16 -79 -38 -111 -44 -111 -19 0
9 7 14 18 13 15 -2 72 16 72 24 0 1 -18 1 -40 -1 -60 -6 -108 6 -121 29 -10
20 -10 20 17 3 31 -21 127 -25 145 -7 9 9 -1 11 -43 6 -34 -3 -63 -1 -74 6
-17 10 -16 11 6 6 14 -3 43 1 65 9 l40 15 -47 -6 c-63 -7 -92 1 -106 32 -15
33 -15 35 1 30 14 -6 67 85 67 115 0 36 -22 67 -63 90 -37 21 -39 25 -22 34
10 6 27 19 37 29 21 20 49 22 67 5 11 -11 11 -9 2 10 -14 26 -57 30 -87 7 -10
-8 -38 -15 -61 -15 -57 0 -77 24 -98 114 -8 40 -23 83 -32 96 -9 13 -11 20 -5
16 31 -19 -7 50 -50 90 -18 18 -46 39 -63 47 -16 9 -24 16 -16 17 26 0 -8 28
-44 34 -22 5 -32 11 -29 20 4 10 -8 12 -50 8 -54 -4 -55 -4 -74 29 -23 40 -56
81 -96 121 -57 56 -197 74 -275 34 -17 -9 -31 -13 -31 -8 0 4 17 14 38 22 20
7 31 15 24 18 -10 3 -10 7 0 20 7 8 -9 3 -35 -12 -26 -16 -50 -26 -53 -23 -3
3 4 8 15 12 12 3 26 15 32 26 10 19 9 19 -27 4 -48 -20 -67 -19 -111 5 -40 21
-115 27 -156 11 -14 -5 -42 -25 -63 -43 l-39 -33 33 43 34 42 -32 0 c-19 0
-40 -9 -53 -22z m-259 -2413 c0 -13 -5 -7 -13 15 -7 19 -13 64 -13 100 l0 65
13 -80 c8 -44 13 -89 13 -100z m289 -217 c-3 -8 -6 -5 -6 6 -1 11 2 17 5 13 3
-3 4 -12 1 -19z m214 -315 c-4 -28 -6 -32 -9 -15 -3 22 3 52 11 52 1 0 1 -17
-2 -37z m236 -315 c-3 -8 -6 -5 -6 6 -1 11 2 17 5 13 3 -3 4 -12 1 -19z"/>
<path d="M94 4179 c-17 -5 -37 -16 -44 -24 -17 -20 -4 -18 55 10 51 24 45 31
-11 14z"/>
<path d="M4945 4059 c-11 -17 0 -20 21 -4 17 13 17 14 2 15 -9 0 -20 -5 -23
-11z"/>
<path d="M1476 2175 c-3 -9 -6 -26 -5 -38 1 -14 4 -9 9 13 9 37 7 52 -4 25z"/>
</g>
</svg>
