<?xml version="1.0" standalone="no"?>
<!DOCTYPE svg PUBLIC "-//W3C//DTD SVG 20010904//EN"
 "http://www.w3.org/TR/2001/REC-SVG-20010904/DTD/svg10.dtd">
<svg version="1.0" xmlns="http://www.w3.org/2000/svg"
 width="1280.000000pt" height="942.000000pt" viewBox="0 0 1280.000000 942.000000"
 preserveAspectRatio="xMidYMid meet">
<metadata>
Created by potrace 1.15, written by Peter Selinger 2001-2017
</metadata>
<g transform="translate(0.000000,942.000000) scale(0.100000,-0.100000)"
fill="#fff" stroke="none">
<path d="M1980 9402 c-19 -11 -63 -55 -98 -100 -96 -124 -126 -136 -288 -118
-60 7 -77 6 -115 -11 -58 -26 -124 -93 -159 -163 -17 -32 -40 -61 -57 -70 -34
-19 -74 -15 -66 6 14 36 -72 -13 -129 -74 -67 -72 -97 -136 -91 -194 3 -25 0
-62 -6 -81 -22 -64 24 -100 171 -137 47 -12 100 -31 118 -41 40 -25 37 -29
-79 -111 -123 -88 -138 -104 -182 -195 -45 -94 -128 -190 -224 -258 -33 -23
-120 -77 -194 -119 -75 -43 -153 -96 -175 -119 -23 -23 -71 -68 -108 -99 -118
-103 -124 -162 -28 -329 77 -133 94 -196 67 -233 -13 -18 -18 -17 -110 11
l-97 31 0 -23 c0 -21 6 -24 57 -30 105 -13 163 -50 163 -104 0 -19 -6 -21 -75
-21 -46 0 -75 4 -75 11 0 5 -5 7 -11 4 -6 -4 -43 -11 -82 -16 -49 -6 -78 -15
-91 -29 -20 -20 -20 -20 -1 -20 11 0 55 7 98 15 97 18 217 20 239 3 9 -7 21
-31 28 -53 7 -22 26 -66 42 -97 l30 -57 -27 -24 c-26 -22 -28 -27 -28 -118 -1
-62 5 -114 17 -154 21 -71 79 -182 133 -255 34 -46 41 -51 70 -48 26 3 33 0
35 -17 2 -12 12 -21 27 -23 21 -3 23 0 19 22 -4 18 -2 24 6 17 6 -4 23 -11 39
-15 23 -5 29 -3 37 19 10 27 30 34 30 10 0 -29 19 -15 38 28 26 58 53 79 109
84 48 4 48 4 26 -14 -33 -27 -56 -90 -48 -132 8 -44 42 -110 59 -117 9 -3 12
-28 12 -82 -1 -89 27 -161 70 -180 25 -12 25 -12 17 26 -11 53 -1 213 13 199
3 -3 14 -48 25 -102 24 -118 68 -242 110 -306 17 -27 57 -73 90 -103 l59 -55
-64 -35 c-34 -19 -69 -42 -76 -50 -10 -13 -8 -17 16 -27 22 -8 45 -7 97 6 38
9 70 15 72 13 2 -2 -16 -43 -41 -92 -84 -162 -109 -273 -92 -400 14 -103 50
-181 160 -347 54 -82 100 -149 102 -149 8 0 -24 139 -48 209 -14 41 -26 79
-26 85 1 21 42 -66 76 -163 19 -53 45 -119 59 -146 25 -52 80 -113 91 -102 4
3 -23 69 -60 145 -36 76 -66 142 -66 146 0 3 11 6 25 6 l25 0 -30 42 c-73 100
-99 307 -52 411 11 26 22 47 24 47 2 0 4 -71 3 -157 0 -137 3 -168 23 -230 12
-39 34 -85 48 -102 19 -23 36 -72 65 -183 54 -210 63 -238 122 -358 28 -58 53
-107 54 -109 1 -2 9 -1 16 2 13 5 12 14 -4 64 -29 86 -40 224 -29 341 10 102
47 272 59 272 15 0 30 -124 21 -165 -25 -116 -20 -289 10 -319 16 -16 30 12
30 64 l1 45 28 -75 c15 -41 51 -125 79 -186 28 -61 63 -142 77 -180 53 -137
78 -194 87 -200 6 -4 8 1 5 12 -14 48 -77 347 -74 350 4 4 55 -158 77 -243 6
-24 15 -43 19 -43 9 0 21 48 21 85 0 12 6 28 14 34 11 9 14 0 19 -49 4 -33 16
-78 27 -99 22 -44 46 -66 37 -35 -12 41 -19 115 -13 139 12 49 22 24 23 -62 0
-64 6 -103 22 -145 23 -60 80 -142 105 -151 17 -7 13 6 -50 153 -29 69 -45
180 -25 180 6 0 20 -31 32 -70 17 -58 25 -70 42 -70 16 -1 28 -14 46 -53 24
-51 105 -147 123 -147 5 0 7 13 3 30 -9 40 8 38 40 -4 75 -98 94 -265 49 -426
-7 -23 -6 -24 10 -11 24 20 37 47 57 116 16 54 18 56 18 25 1 -21 -13 -65 -34
-109 -35 -73 -44 -111 -25 -111 6 0 19 13 28 30 16 29 32 39 32 21 0 -5 -9
-28 -20 -52 -11 -24 -20 -53 -20 -64 0 -38 40 18 75 105 19 46 43 95 54 109
l20 26 0 -29 c1 -16 -13 -58 -30 -92 -31 -64 -35 -104 -11 -112 8 -2 12 7 12
27 0 18 7 48 16 69 15 34 17 35 24 16 10 -26 37 -237 45 -354 4 -47 20 -179
37 -295 l31 -210 -13 -215 c-13 -232 -11 -260 27 -480 31 -178 28 -260 -10
-344 l-27 -58 -25 16 c-37 24 -151 49 -173 37 -35 -19 -45 -38 -32 -62 13 -24
2 -21 -32 9 -24 20 -108 11 -177 -19 -66 -28 -118 -87 -173 -195 -30 -60 -50
-86 -66 -90 -12 -4 -33 -20 -47 -36 -57 -68 -14 -220 75 -266 27 -13 54 -20
68 -17 15 4 22 1 22 -9 0 -8 25 -40 56 -70 l55 -55 66 15 c37 8 100 14 142 13
71 -2 76 0 74 19 -3 28 56 35 87 10 34 -28 87 -34 110 -13 11 10 20 26 20 37
0 10 6 18 14 18 9 0 12 -8 8 -25 -5 -30 -5 -30 118 -5 52 11 119 20 148 20 40
0 58 5 75 21 12 11 36 28 52 36 62 32 75 52 75 115 0 68 62 274 112 371 65
127 102 278 114 461 5 72 3 119 -5 149 -12 41 -10 51 29 168 62 187 110 435
159 816 l18 141 58 99 c32 54 77 131 101 172 l43 74 3 -38 c5 -67 25 -52 33
25 4 38 11 70 17 70 5 0 16 -16 23 -35 19 -44 10 -67 -49 -134 -59 -66 -69
-88 -95 -197 -36 -155 -23 -261 42 -345 34 -45 62 -63 50 -33 -4 11 -3 15 5
10 6 -3 14 -27 18 -51 l6 -45 117 -66 c128 -74 299 -186 436 -288 65 -48 91
-62 97 -53 6 11 23 11 95 0 101 -16 393 -12 458 7 73 20 94 31 88 46 -3 8 0
14 7 14 18 0 145 117 191 176 48 62 96 181 79 198 -5 5 -10 23 -10 38 0 15 -7
46 -16 68 -19 47 -48 68 -70 49 -11 -9 -20 -9 -42 0 -26 12 -26 13 -8 27 19
14 19 14 -4 39 -39 41 -111 60 -235 60 -91 0 -122 -4 -176 -24 l-65 -23 -71
31 c-48 21 -87 31 -121 31 -43 0 -50 3 -60 25 -7 14 -12 50 -12 79 0 77 45
144 219 321 142 146 205 230 180 246 -19 11 4 17 68 18 35 0 126 15 211 35 98
24 173 36 220 36 66 0 71 2 74 23 2 16 9 21 23 19 102 -15 156 -13 240 8 94
23 129 40 82 40 -15 0 -27 5 -27 10 0 9 28 7 68 -6 8 -2 26 4 40 15 43 30 98
50 185 66 83 15 329 37 336 29 2 -2 -2 -17 -9 -34 -7 -17 -9 -34 -5 -38 4 -4
10 -1 12 6 10 27 56 72 74 72 18 0 19 -2 4 -30 -18 -34 -19 -84 -4 -166 27
-154 111 -368 150 -382 16 -7 30 -34 59 -123 103 -313 254 -493 470 -560 63
-19 66 -22 100 -81 51 -88 189 -213 345 -313 107 -68 131 -88 135 -111 3 -19
20 -39 50 -60 94 -68 90 -59 90 -191 0 -189 -25 -302 -86 -386 -41 -56 -116
-97 -180 -97 -33 0 -46 6 -75 36 -33 35 -36 36 -89 31 -30 -3 -79 -11 -108
-17 -46 -10 -53 -15 -49 -31 5 -18 2 -19 -31 -12 -148 31 -288 -71 -281 -205
2 -41 -1 -51 -31 -80 -30 -30 -32 -37 -26 -78 5 -37 3 -46 -12 -51 -25 -9 -52
-34 -52 -50 0 -8 12 -13 30 -13 22 0 33 -6 39 -22 12 -30 38 -53 85 -72 40
-17 56 -14 56 10 0 8 5 14 11 14 6 0 9 -7 5 -15 -3 -8 -1 -27 5 -41 9 -25 12
-26 60 -21 49 6 50 6 47 -21 -3 -23 1 -27 37 -34 106 -19 231 -3 273 36 12 10
22 12 32 6 21 -14 30 -12 30 5 0 12 8 14 39 9 36 -6 273 10 348 22 17 3 48 21
68 39 20 19 42 32 49 29 9 -3 16 7 20 28 l7 33 14 -31 c22 -52 43 -57 87 -21
34 27 38 35 38 78 0 58 -7 79 -29 80 -12 0 -11 3 7 16 12 8 22 22 22 29 0 22
68 153 109 209 19 28 81 106 136 175 99 124 136 176 191 277 16 29 66 110 111
181 l82 129 -2 92 -2 92 -35 26 c-68 51 -237 229 -310 327 -95 128 -219 325
-281 449 -40 82 -47 101 -37 117 9 14 9 28 0 58 -17 55 -15 69 8 75 16 4 18
11 13 41 -5 35 -3 38 106 142 100 96 244 256 269 299 8 15 20 8 88 -47 130
-105 314 -202 462 -244 43 -12 67 -27 98 -60 25 -27 53 -46 73 -50 24 -5 54
-31 119 -102 262 -288 290 -309 562 -428 94 -41 191 -86 216 -100 34 -20 51
-24 76 -19 29 7 31 6 19 -8 -11 -14 -8 -23 23 -65 40 -55 91 -100 244 -216
138 -106 150 -124 172 -266 17 -109 36 -148 83 -171 82 -41 104 -66 151 -163
26 -55 56 -103 74 -117 53 -43 110 -182 97 -240 l-7 -29 -29 21 c-55 39 -137
6 -96 -39 28 -30 22 -49 -13 -44 -46 7 -85 -15 -145 -80 -58 -63 -65 -84 -39
-124 16 -24 16 -26 -15 -58 -42 -43 -55 -96 -34 -137 13 -26 14 -37 3 -69 -17
-50 -10 -65 42 -91 91 -46 149 -61 245 -60 80 1 105 6 190 37 65 24 117 37
155 38 45 1 58 5 62 19 6 26 26 20 26 -8 0 -14 3 -25 8 -25 4 0 27 25 52 55
25 30 48 55 53 55 4 0 7 -13 7 -30 0 -37 23 -31 40 10 14 35 40 48 40 20 0
-36 20 -31 91 26 122 97 124 136 21 333 -59 113 -66 132 -67 186 0 37 -8 73
-18 93 -10 18 -23 74 -28 125 -6 50 -14 98 -19 107 -4 8 -5 51 -2 95 25 303
-87 567 -282 663 -90 45 -294 248 -326 324 -14 35 -33 61 -51 72 -15 9 -45 44
-66 77 -21 34 -59 94 -86 134 -26 40 -47 79 -47 87 0 31 -93 335 -143 470 -30
79 -104 260 -165 403 -150 354 -158 376 -171 485 -14 129 -54 240 -165 465
-85 172 -141 295 -133 295 2 0 28 -4 58 -10 30 -5 137 -16 239 -25 102 -8 215
-22 252 -30 88 -18 524 -10 548 11 8 7 71 26 140 43 218 52 387 120 601 242
l106 61 76 117 c42 64 90 130 107 146 16 16 30 38 30 49 0 12 16 84 36 161 19
77 38 179 41 226 25 376 -226 795 -637 1061 -175 114 -320 171 -525 208 -131
24 -197 46 -256 85 -21 14 -53 25 -71 25 -18 0 -54 7 -80 15 -39 11 -48 12
-48 1 0 -11 -9 -11 -52 0 -29 8 -65 14 -79 14 -15 0 -34 6 -41 13 -7 7 -31 13
-53 13 -22 0 -82 4 -132 8 -68 7 -93 6 -93 -3 0 -6 10 -11 22 -11 35 0 16 -9
-66 -30 -100 -25 -220 -82 -326 -154 -69 -47 -79 -56 -52 -51 17 4 32 4 32 2
0 -3 -57 -53 -127 -110 -71 -57 -148 -123 -173 -146 -42 -40 -43 -42 -17 -36
26 5 27 4 15 -15 -7 -11 -27 -25 -45 -31 -30 -10 -63 -42 -63 -62 0 -4 9 -3
19 3 28 14 41 12 35 -5 -4 -8 -14 -15 -25 -15 -21 0 -77 -45 -67 -55 7 -7 83
29 93 45 12 20 26 10 23 -17 -3 -22 -12 -29 -58 -45 -50 -17 -109 -58 -84 -58
6 0 42 14 79 31 37 16 89 33 115 36 67 8 140 -4 147 -25 4 -9 13 -21 20 -25 7
-5 11 -12 8 -16 -9 -15 77 -32 190 -38 180 -9 288 27 595 202 184 105 329 154
452 155 24 1 54 7 68 15 14 8 52 14 85 15 170 1 381 -114 580 -315 258 -260
372 -550 310 -785 -37 -141 -147 -291 -268 -368 -147 -93 -305 -142 -456 -142
-53 0 -136 -7 -186 -16 -119 -21 -258 -14 -385 21 -130 35 -316 129 -560 283
-204 128 -615 370 -858 504 -148 81 -575 293 -677 336 -40 16 -70 35 -70 43 0
9 -13 15 -40 16 -97 7 -210 28 -393 75 -231 59 -446 92 -702 108 -232 15 -397
9 -855 -35 -732 -70 -998 -81 -1179 -50 -134 23 -239 72 -216 100 8 10 2 21
-22 46 -39 38 -92 63 -170 79 -32 6 -58 14 -58 17 0 3 31 3 69 0 56 -5 69 -3
65 8 -6 15 -36 25 -75 25 -37 0 -40 8 -18 43 23 39 25 80 3 98 -13 11 -14 9
-9 -14 8 -28 -1 -67 -15 -67 -5 0 -7 13 -4 28 8 38 -16 93 -66 152 -22 26 -47
64 -55 83 -9 21 -25 39 -45 47 -17 7 -37 26 -45 45 -41 84 -214 104 -274 31
-12 -14 -9 -14 25 0 51 21 144 15 181 -12 39 -30 39 -42 -3 -50 -28 -5 -39 -3
-45 9 -19 33 -69 39 -153 17 -81 -20 -96 -19 -96 6 0 21 177 103 237 110 41 5
54 2 86 -20 45 -31 50 -13 10 34 -25 30 -30 32 -82 28 -44 -3 -86 -19 -192
-72 -160 -78 -198 -88 -217 -55 -13 20 -12 21 7 16 12 -3 21 -1 21 4 0 5 -6 9
-14 9 -8 0 -17 4 -20 9 -4 5 19 7 54 4 51 -5 60 -3 60 11 0 10 8 16 23 16 13
0 32 6 43 14 17 13 8 14 -77 9 -123 -7 -181 2 -219 33 -47 40 -38 55 18 27 95
-47 222 -50 288 -7 39 26 28 32 -33 18 -76 -18 -155 -18 -198 0 -19 8 -35 16
-35 18 0 2 27 1 61 0 45 -3 83 3 146 23 47 14 83 28 81 31 -3 2 -37 -2 -77
-11 -83 -17 -178 -20 -215 -5 -33 12 -66 66 -65 105 0 17 3 24 6 18 11 -27 30
-9 82 78 58 98 72 152 52 212 -14 43 -72 97 -140 131 -65 33 -69 42 -26 56 20
7 57 32 83 56 25 24 52 44 60 44 20 0 54 -20 74 -44 26 -32 21 -6 -7 37 -22
32 -31 37 -65 37 -23 0 -67 -14 -111 -35 -82 -39 -127 -44 -189 -19 -65 26
-81 60 -130 264 -11 47 -31 106 -43 132 -13 26 -20 45 -15 42 4 -3 11 2 14 10
8 22 -78 147 -134 196 -26 22 -73 54 -104 70 -59 32 -74 47 -38 37 12 -3 20 0
20 7 0 24 -35 45 -105 62 -38 9 -72 19 -74 21 -3 2 4 10 15 17 32 24 8 30 -80
17 -116 -16 -146 -1 -196 99 -13 25 -37 59 -54 75 -17 17 -42 47 -54 67 -49
80 -160 141 -300 165 -110 19 -209 7 -300 -38 -46 -22 -67 -28 -75 -20 -7 7 4
16 39 32 27 12 67 30 89 40 l40 19 -37 -5 c-44 -7 -49 5 -13 29 14 9 25 24 25
32 0 12 -8 9 -32 -12 -37 -30 -145 -84 -168 -83 -8 0 3 9 26 18 38 17 94 72
94 91 0 5 -31 -4 -69 -20 -90 -38 -147 -39 -200 -4 -56 36 -123 54 -207 54
-104 0 -169 -27 -250 -102 -35 -33 -64 -56 -64 -51 0 5 27 41 60 80 46 55 56
72 44 77 -30 11 -79 6 -114 -12z m-571 -4789 c11 -65 18 -120 16 -122 -6 -5
-35 70 -52 134 -18 66 -22 232 -7 256 6 9 11 -12 16 -68 4 -45 16 -135 27
-200z m580 -472 c1 -48 -5 -36 -13 24 -4 34 -3 43 3 30 5 -11 10 -35 10 -54z
m8 -78 c-3 -10 -5 -4 -5 12 0 17 2 24 5 18 2 -7 2 -21 0 -30z"/>
<path d="M235 6715 c-27 -8 -53 -14 -57 -15 -11 0 -78 -61 -78 -70 0 -7 226
84 239 96 10 9 -58 2 -104 -11z"/>
</g>
</svg>
